<svg width="240" height="240" viewBox="0 0 240 240" fill="none" xmlns="http://www.w3.org/2000/svg">
  <rect width="240" height="240" rx="48" fill="#0B0D16"/>
  <rect x="20" y="20" width="200" height="200" rx="36" fill="url(#paint0_linear)"/>
  <path d="M70 164V80L120 140L170 80V164" stroke="white" stroke-width="12" stroke-linecap="round" stroke-linejoin="round"/>
  <path d="M86 92C86 88.6863 88.6863 86 92 86H108C111.314 86 114 88.6863 114 92V132C114 135.314 111.314 138 108 138H92C88.6863 138 86 135.314 86 132V92Z" fill="url(#paint1_linear)"/>
  <path d="M126 110C126 106.686 128.686 104 132 104H152C155.314 104 158 106.686 158 110V148C158 151.314 155.314 154 152 154H132C128.686 154 126 151.314 126 148V110Z" fill="url(#paint2_linear)"/>
  <circle cx="84" cy="160" r="8" fill="#BFFCF0"/>
  <circle cx="156" cy="88" r="6" fill="#B1C9FF"/>
  <circle cx="124" cy="184" r="7" fill="#6AF2D2"/>
  <path d="M84 160H124" stroke="#6AF2D2" stroke-width="4" stroke-linecap="round" stroke-dasharray="6 6"/>
  <path d="M124 184L156 88" stroke="#4C7DFC" stroke-width="4" stroke-linecap="round" stroke-dasharray="8 8"/>
  <defs>
    <linearGradient id="paint0_linear" x1="40" y1="20" x2="200" y2="220" gradientUnits="userSpaceOnUse">
      <stop stop-color="#12182C"/>
      <stop offset="1" stop-color="#0A101D"/>
    </linearGradient>
    <linearGradient id="paint1_linear" x1="86" y1="86" x2="120" y2="138" gradientUnits="userSpaceOnUse">
      <stop stop-color="#6AF2D2" stop-opacity="0.95"/>
      <stop offset="1" stop-color="#2BB6A2" stop-opacity="0.9"/>
    </linearGradient>
    <linearGradient id="paint2_linear" x1="126" y1="104" x2="160" y2="154" gradientUnits="userSpaceOnUse">
      <stop stop-color="#4C7DFC" stop-opacity="0.95"/>
      <stop offset="1" stop-color="#2D4FAF" stop-opacity="0.9"/>
    </linearGradient>
  </defs>
</svg>
